<svg xmlns="http://www.w3.org/2000/svg" xmlns:xlink="http://www.w3.org/1999/xlink" id="Layer_1" x="0" y="0" enable-background="new 0 0 808 808" version="1.1" viewBox="0 0 808 808" xml:space="preserve"><g><g><defs><rect id="SVGID_1_" width="570" height="486" x="120" y="163"/></defs><clipPath id="SVGID_2_"><use overflow="visible" xlink:href="#SVGID_1_"/></clipPath><g clip-path="url(#SVGID_2_)"><defs><rect id="SVGID_3_" width="808" height="808"/></defs><clipPath id="SVGID_4_"><use overflow="visible" xlink:href="#SVGID_3_"/></clipPath><g clip-path="url(#SVGID_4_)"><defs><path id="SVGID_5_" d="M593.3,648.6H423.4c-2.9,0-5.3-2.4-5.3-5.3l-0.1-269.1c0-1.2,1.4-1.3,1.6-0.1l13.7,91.6 c4.7,31,27.7,70.5,52.2,89.9l109.9,86.6C600.1,645.7,599.1,648.6,593.3,648.6"/></defs><clipPath id="SVGID_6_"><use overflow="visible" xlink:href="#SVGID_5_"/></clipPath><g clip-path="url(#SVGID_6_)"><defs><rect id="SVGID_7_" width="808" height="808"/></defs><clipPath id="SVGID_8_"><use overflow="visible" xlink:href="#SVGID_7_"/></clipPath><rect width="190.3" height="285.4" x="413.1" y="368.2" clip-path="url(#SVGID_8_)"/></g></g></g><g clip-path="url(#SVGID_2_)"><defs><rect id="SVGID_9_" width="808" height="808"/></defs><clipPath id="SVGID_10_"><use overflow="visible" xlink:href="#SVGID_9_"/></clipPath><g clip-path="url(#SVGID_10_)"><defs><path id="SVGID_11_" d="M388.7,374.1l-13.8,91.6c-4.7,31-27.7,70.5-52.2,89.9l-109.9,86.6c-4.6,3.6-3.6,6.5,2.2,6.5h169.9 c2.9,0,5.3-2.4,5.3-5.3l0.1-269.1C390.2,373,388.8,372.9,388.7,374.1"/></defs><clipPath id="SVGID_12_"><use overflow="visible" xlink:href="#SVGID_11_"/></clipPath><g clip-path="url(#SVGID_12_)"><defs><rect id="SVGID_13_" width="808" height="808"/></defs><clipPath id="SVGID_14_"><use overflow="visible" xlink:href="#SVGID_13_"/></clipPath><rect width="190.3" height="285.4" x="204.9" y="368.2" clip-path="url(#SVGID_14_)"/></g></g></g><g clip-path="url(#SVGID_2_)"><defs><rect id="SVGID_15_" width="808" height="808"/></defs><clipPath id="SVGID_16_"><use overflow="visible" xlink:href="#SVGID_15_"/></clipPath><g clip-path="url(#SVGID_16_)"><defs><path id="SVGID_17_" d="M686.3,484.6L497,167.7c-1.4-2.3-4.6-4.1-7.3-4.1h-170c-2.6,0-5.9,1.9-7.3,4.1l-189,316.8 c-2.9,4.9-0.9,7.4,4.5,5.7L283.5,440c12.8-4.1,28-18.9,32.6-31.6l63.8-178.1c1-2.7,4.1-5,7-5h34.8c2.9,0,6.1,2.3,7,5 l63.8,178.1c4.6,12.7,19.8,27.5,32.6,31.6l156.8,50.4C687.2,492,689.2,489.5,686.3,484.6"/></defs><clipPath id="SVGID_18_"><use overflow="visible" xlink:href="#SVGID_17_"/></clipPath><g clip-path="url(#SVGID_18_)"><defs><rect id="SVGID_19_" width="808" height="808"/></defs><clipPath id="SVGID_20_"><use overflow="visible" xlink:href="#SVGID_19_"/></clipPath><rect width="575.4" height="337.2" x="117.2" y="158.6" clip-path="url(#SVGID_20_)"/></g></g></g><g clip-path="url(#SVGID_2_)"><defs><rect id="SVGID_21_" width="808" height="808"/></defs><clipPath id="SVGID_22_"><use overflow="visible" xlink:href="#SVGID_21_"/></clipPath><g clip-path="url(#SVGID_22_)"><defs><path id="SVGID_23_" d="M347.4,461.4l13.6-90.2c0.2-1.3-1.5-2-2-0.5l-16.7,47.2c-7.4,20.7-29.5,42.1-50.2,48.8l-162.5,52.5 c-3.1,1-4.2,4-2.4,6.8l59.2,94c1.7,2.7,5.2,3.3,7.7,1.3l111.5-87.8C324.5,518.5,343.7,485.5,347.4,461.4"/></defs><clipPath id="SVGID_24_"><use overflow="visible" xlink:href="#SVGID_23_"/></clipPath><g clip-path="url(#SVGID_24_)"><defs><rect id="SVGID_25_" width="808" height="808"/></defs><clipPath id="SVGID_26_"><use overflow="visible" xlink:href="#SVGID_25_"/></clipPath><rect width="244.8" height="262.6" x="121.2" y="364.9" clip-path="url(#SVGID_26_)"/></g></g></g><g clip-path="url(#SVGID_2_)"><defs><rect id="SVGID_27_" width="808" height="808"/></defs><clipPath id="SVGID_28_"><use overflow="visible" xlink:href="#SVGID_27_"/></clipPath><g clip-path="url(#SVGID_28_)"><defs><path id="SVGID_29_" d="M678.9,519.1l-162.5-52.5c-20.8-6.7-42.8-28.2-50.2-48.8l-16.7-47.2c-0.5-1.5-2.2-0.8-2,0.5l13.5,90.2 c3.7,24,22.8,57.1,41.9,72l111.5,87.8c2.5,2,6,1.4,7.7-1.3l59.3-94C683,523.2,681.9,520.1,678.9,519.1"/></defs><clipPath id="SVGID_30_"><use overflow="visible" xlink:href="#SVGID_29_"/></clipPath><g clip-path="url(#SVGID_30_)"><defs><rect id="SVGID_31_" width="808" height="808"/></defs><clipPath id="SVGID_32_"><use overflow="visible" xlink:href="#SVGID_31_"/></clipPath><rect width="244.7" height="262.6" x="442.4" y="364.9" clip-path="url(#SVGID_32_)"/></g></g></g><g clip-path="url(#SVGID_2_)"><defs><rect id="SVGID_33_" width="808" height="808"/></defs><clipPath id="SVGID_34_"><use overflow="visible" xlink:href="#SVGID_33_"/></clipPath><g clip-path="url(#SVGID_34_)"><defs><path id="SVGID_35_" d="M590.5,246.3c0-9.2,7.3-16.8,16.2-16.8s16.2,7.6,16.2,16.8s-7.3,16.8-16.2,16.8 S590.5,255.5,590.5,246.3z M586,246.3c0,11.8,9.3,21.3,20.7,21.3c11.5,0,20.7-9.5,20.7-21.3c0-11.8-9.3-21.3-20.7-21.3 C595.3,225,586,234.5,586,246.3z M610.2,242c0,3.2-2.9,3.4-6.9,3.4v-6.6C608.4,238.8,610.2,239.1,610.2,242z M616.8,258 l-6.7-9.5c3-1,4.6-3.8,4.6-6.6c0-4.8-2.8-6.8-11.2-6.8h-4.6V258h4.4v-9.3h1.5l6.7,9.3H616.8z"/></defs><clipPath id="SVGID_36_"><use overflow="visible" xlink:href="#SVGID_35_"/></clipPath><g clip-path="url(#SVGID_36_)"><defs><rect id="SVGID_37_" width="808" height="808"/></defs><clipPath id="SVGID_38_"><use overflow="visible" xlink:href="#SVGID_37_"/></clipPath><rect width="51.5" height="52.7" x="581" y="220" fill="#393939" clip-path="url(#SVGID_38_)"/></g></g></g></g></g></svg>